G04 #@! TF.FileFunction,Soldermask,Bot*
%FSLAX46Y46*%
G04 Gerber Fmt 4.6, Leading zero omitted, Abs format (unit mm)*
G04 Created by KiCad (PCBNEW 4.0.4-stable) date 09/06/17 14:08:57*
%MOMM*%
%LPD*%
G01*
G04 APERTURE LIST*
%ADD10C,0.500000*%
%ADD11R,2.432000X2.432000*%
%ADD12C,2.432000*%
%ADD13C,3.400000*%
%ADD14C,2.305000*%
%ADD15O,2.127200X2.432000*%
%ADD16C,2.940000*%
%ADD17C,2.400000*%
%ADD18O,3.400000X1.600000*%
%ADD19O,2.500000X1.600000*%
%ADD20O,3.000000X1.600000*%
%ADD21R,2.500580X2.500580*%
%ADD22C,2.599640*%
%ADD23R,2.899360X2.899360*%
%ADD24C,2.899360*%
%ADD25C,1.797000*%
%ADD26R,1.797000X1.797000*%
%ADD27C,2.178000*%
%ADD28O,2.398980X4.400500*%
G04 APERTURE END LIST*
D10*
D11*
X28575000Y84455000D03*
D12*
X26035000Y84455000D03*
X23495000Y84455000D03*
X20955000Y84455000D03*
D13*
X36015000Y83475000D03*
X36015000Y60975000D03*
X13515000Y60975000D03*
X13515000Y83475000D03*
D14*
X15875000Y29210000D03*
X10775000Y28210000D03*
D12*
X39370000Y28575000D03*
X39370000Y20955000D03*
D15*
X6985000Y33020000D03*
X9525000Y33020000D03*
X12065000Y33020000D03*
X14605000Y33020000D03*
X17145000Y33020000D03*
X19685000Y33020000D03*
X22225000Y33020000D03*
X24765000Y33020000D03*
X27305000Y33020000D03*
X29845000Y33020000D03*
X32385000Y33020000D03*
X34925000Y33020000D03*
X37465000Y33020000D03*
X40005000Y33020000D03*
X42545000Y33020000D03*
X6985000Y55880000D03*
X37465000Y55880000D03*
X40005000Y55880000D03*
X34925000Y55880000D03*
X19685000Y55880000D03*
X17145000Y55880000D03*
X22225000Y55880000D03*
X42545000Y55880000D03*
X27305000Y55880000D03*
X24765000Y55880000D03*
X29845000Y55880000D03*
X32385000Y55880000D03*
X12065000Y55880000D03*
X14605000Y55880000D03*
X9525000Y55880000D03*
D16*
X15240000Y24130000D03*
X15240000Y14732000D03*
D17*
X3784600Y19692620D03*
X3810000Y16685000D03*
X3810000Y22685000D03*
D18*
X3810000Y13385000D03*
X3810000Y25985000D03*
D14*
X4445000Y90170000D03*
X9525000Y90170000D03*
X13335000Y90170000D03*
X18415000Y90170000D03*
X22225000Y90170000D03*
X27305000Y90170000D03*
X31115000Y90170000D03*
X36195000Y90170000D03*
X40005000Y90170000D03*
X45085000Y90170000D03*
D16*
X11430000Y24130000D03*
X11430000Y14732000D03*
D19*
X43580000Y11049000D03*
X43580000Y20949000D03*
D20*
X47580000Y11049000D03*
X47580000Y20949000D03*
D21*
X19685000Y72390000D03*
D22*
X22225000Y72390000D03*
X24765000Y72390000D03*
X27305000Y72390000D03*
X29845000Y72390000D03*
D23*
X4445000Y78232000D03*
D24*
X4445000Y73152000D03*
X4445000Y68072000D03*
X4445000Y62992000D03*
D25*
X42545000Y36195000D03*
X40005000Y36195000D03*
X37465000Y36195000D03*
X34925000Y36195000D03*
X32385000Y36195000D03*
D26*
X6985000Y36195000D03*
D25*
X9525000Y36195000D03*
X12065000Y36195000D03*
X14605000Y36195000D03*
X17145000Y36195000D03*
X19685000Y36195000D03*
X22225000Y36195000D03*
X24765000Y36195000D03*
X27305000Y36195000D03*
X29845000Y36195000D03*
X6985000Y52705000D03*
X9525000Y52705000D03*
X12065000Y52705000D03*
X14605000Y52705000D03*
X17145000Y52705000D03*
D26*
X42545000Y52705000D03*
D25*
X40005000Y52705000D03*
X37465000Y52705000D03*
X34925000Y52705000D03*
X32385000Y52705000D03*
X29845000Y52705000D03*
X27305000Y52705000D03*
X24765000Y52705000D03*
X22225000Y52705000D03*
X19685000Y52705000D03*
D13*
X45000000Y85000000D03*
X5000000Y85000000D03*
X5000000Y5000000D03*
X45000000Y5000000D03*
D23*
X33020000Y5715000D03*
D24*
X38100000Y5715000D03*
D27*
X22225000Y13970000D03*
X27305000Y13970000D03*
X24765000Y13970000D03*
X22225000Y27940000D03*
X27305000Y27940000D03*
D28*
X30480000Y20955000D03*
X19050000Y20955000D03*
D12*
X44450000Y26035000D03*
D11*
X46990000Y26035000D03*
M02*
