G04 #@! TF.FileFunction,Legend,Bot*
%FSLAX46Y46*%
G04 Gerber Fmt 4.6, Leading zero omitted, Abs format (unit mm)*
G04 Created by KiCad (PCBNEW 4.0.5) date 09/24/17 13:10:49*
%MOMM*%
%LPD*%
G01*
G04 APERTURE LIST*
%ADD10C,0.500000*%
%ADD11C,0.300000*%
%ADD12C,0.271780*%
%ADD13C,0.254000*%
%ADD14C,0.150000*%
%ADD15C,0.088900*%
G04 APERTURE END LIST*
D10*
D11*
X6735000Y38298572D02*
X6735000Y39012858D01*
X6306429Y38155715D02*
X7806429Y38655715D01*
X6306429Y39155715D01*
X7806429Y39941429D02*
X7806429Y40084286D01*
X7735000Y40227143D01*
X7663571Y40298572D01*
X7520714Y40370001D01*
X7235000Y40441429D01*
X6877857Y40441429D01*
X6592143Y40370001D01*
X6449286Y40298572D01*
X6377857Y40227143D01*
X6306429Y40084286D01*
X6306429Y39941429D01*
X6377857Y39798572D01*
X6449286Y39727143D01*
X6592143Y39655715D01*
X6877857Y39584286D01*
X7235000Y39584286D01*
X7520714Y39655715D01*
X7663571Y39727143D01*
X7735000Y39798572D01*
X7806429Y39941429D01*
X43366429Y37834286D02*
X41866429Y38334286D01*
X43366429Y38834286D01*
X41866429Y39334286D02*
X42866429Y39334286D01*
X43366429Y39334286D02*
X43295000Y39262857D01*
X43223571Y39334286D01*
X43295000Y39405714D01*
X43366429Y39334286D01*
X43223571Y39334286D01*
X42866429Y40048572D02*
X41866429Y40048572D01*
X42723571Y40048572D02*
X42795000Y40120000D01*
X42866429Y40262858D01*
X42866429Y40477143D01*
X42795000Y40620000D01*
X42652143Y40691429D01*
X41866429Y40691429D01*
X43366429Y46680715D02*
X43366429Y47609286D01*
X42795000Y47109286D01*
X42795000Y47323572D01*
X42723571Y47466429D01*
X42652143Y47537858D01*
X42509286Y47609286D01*
X42152143Y47609286D01*
X42009286Y47537858D01*
X41937857Y47466429D01*
X41866429Y47323572D01*
X41866429Y46895000D01*
X41937857Y46752143D01*
X42009286Y46680715D01*
X42009286Y48252143D02*
X41937857Y48323571D01*
X41866429Y48252143D01*
X41937857Y48180714D01*
X42009286Y48252143D01*
X41866429Y48252143D01*
X43366429Y48823572D02*
X43366429Y49752143D01*
X42795000Y49252143D01*
X42795000Y49466429D01*
X42723571Y49609286D01*
X42652143Y49680715D01*
X42509286Y49752143D01*
X42152143Y49752143D01*
X42009286Y49680715D01*
X41937857Y49609286D01*
X41866429Y49466429D01*
X41866429Y49037857D01*
X41937857Y48895000D01*
X42009286Y48823572D01*
X43366429Y50180714D02*
X41866429Y50680714D01*
X43366429Y51180714D01*
X33206429Y37790715D02*
X33206429Y38719286D01*
X32635000Y38219286D01*
X32635000Y38433572D01*
X32563571Y38576429D01*
X32492143Y38647858D01*
X32349286Y38719286D01*
X31992143Y38719286D01*
X31849286Y38647858D01*
X31777857Y38576429D01*
X31706429Y38433572D01*
X31706429Y38005000D01*
X31777857Y37862143D01*
X31849286Y37790715D01*
X31849286Y39362143D02*
X31777857Y39433571D01*
X31706429Y39362143D01*
X31777857Y39290714D01*
X31849286Y39362143D01*
X31706429Y39362143D01*
X33206429Y39933572D02*
X33206429Y40862143D01*
X32635000Y40362143D01*
X32635000Y40576429D01*
X32563571Y40719286D01*
X32492143Y40790715D01*
X32349286Y40862143D01*
X31992143Y40862143D01*
X31849286Y40790715D01*
X31777857Y40719286D01*
X31706429Y40576429D01*
X31706429Y40147857D01*
X31777857Y40005000D01*
X31849286Y39933572D01*
X33206429Y41290714D02*
X31706429Y41790714D01*
X33206429Y42290714D01*
X40755000Y38862143D02*
X40826429Y38719286D01*
X40826429Y38505000D01*
X40755000Y38290715D01*
X40612143Y38147857D01*
X40469286Y38076429D01*
X40183571Y38005000D01*
X39969286Y38005000D01*
X39683571Y38076429D01*
X39540714Y38147857D01*
X39397857Y38290715D01*
X39326429Y38505000D01*
X39326429Y38647857D01*
X39397857Y38862143D01*
X39469286Y38933572D01*
X39969286Y38933572D01*
X39969286Y38647857D01*
X39326429Y39576429D02*
X40826429Y39576429D01*
X39326429Y40433572D01*
X40826429Y40433572D01*
X39326429Y41147858D02*
X40826429Y41147858D01*
X40826429Y41505001D01*
X40755000Y41719286D01*
X40612143Y41862144D01*
X40469286Y41933572D01*
X40183571Y42005001D01*
X39969286Y42005001D01*
X39683571Y41933572D01*
X39540714Y41862144D01*
X39397857Y41719286D01*
X39326429Y41505001D01*
X39326429Y41147858D01*
X30595000Y38862143D02*
X30666429Y38719286D01*
X30666429Y38505000D01*
X30595000Y38290715D01*
X30452143Y38147857D01*
X30309286Y38076429D01*
X30023571Y38005000D01*
X29809286Y38005000D01*
X29523571Y38076429D01*
X29380714Y38147857D01*
X29237857Y38290715D01*
X29166429Y38505000D01*
X29166429Y38647857D01*
X29237857Y38862143D01*
X29309286Y38933572D01*
X29809286Y38933572D01*
X29809286Y38647857D01*
X29166429Y39576429D02*
X30666429Y39576429D01*
X29166429Y40433572D01*
X30666429Y40433572D01*
X29166429Y41147858D02*
X30666429Y41147858D01*
X30666429Y41505001D01*
X30595000Y41719286D01*
X30452143Y41862144D01*
X30309286Y41933572D01*
X30023571Y42005001D01*
X29809286Y42005001D01*
X29523571Y41933572D01*
X29380714Y41862144D01*
X29237857Y41719286D01*
X29166429Y41505001D01*
X29166429Y41147858D01*
X40755000Y47752143D02*
X40826429Y47609286D01*
X40826429Y47395000D01*
X40755000Y47180715D01*
X40612143Y47037857D01*
X40469286Y46966429D01*
X40183571Y46895000D01*
X39969286Y46895000D01*
X39683571Y46966429D01*
X39540714Y47037857D01*
X39397857Y47180715D01*
X39326429Y47395000D01*
X39326429Y47537857D01*
X39397857Y47752143D01*
X39469286Y47823572D01*
X39969286Y47823572D01*
X39969286Y47537857D01*
X39326429Y48466429D02*
X40826429Y48466429D01*
X39326429Y49323572D01*
X40826429Y49323572D01*
X39326429Y50037858D02*
X40826429Y50037858D01*
X40826429Y50395001D01*
X40755000Y50609286D01*
X40612143Y50752144D01*
X40469286Y50823572D01*
X40183571Y50895001D01*
X39969286Y50895001D01*
X39683571Y50823572D01*
X39540714Y50752144D01*
X39397857Y50609286D01*
X39326429Y50395001D01*
X39326429Y50037858D01*
X38286429Y48494286D02*
X38286429Y49351429D01*
X36786429Y48922858D02*
X38286429Y48922858D01*
X36786429Y49708572D02*
X37786429Y50494286D01*
X37786429Y49708572D02*
X36786429Y50494286D01*
X34246429Y49387143D02*
X34960714Y48887143D01*
X34246429Y48530000D02*
X35746429Y48530000D01*
X35746429Y49101428D01*
X35675000Y49244286D01*
X35603571Y49315714D01*
X35460714Y49387143D01*
X35246429Y49387143D01*
X35103571Y49315714D01*
X35032143Y49244286D01*
X34960714Y49101428D01*
X34960714Y48530000D01*
X34246429Y49887143D02*
X35246429Y50672857D01*
X35246429Y49887143D02*
X34246429Y50672857D01*
X31706429Y48422858D02*
X33206429Y48422858D01*
X33206429Y48780001D01*
X33135000Y48994286D01*
X32992143Y49137144D01*
X32849286Y49208572D01*
X32563571Y49280001D01*
X32349286Y49280001D01*
X32063571Y49208572D01*
X31920714Y49137144D01*
X31777857Y48994286D01*
X31706429Y48780001D01*
X31706429Y48422858D01*
X32563571Y50137144D02*
X32635000Y49994286D01*
X32706429Y49922858D01*
X32849286Y49851429D01*
X32920714Y49851429D01*
X33063571Y49922858D01*
X33135000Y49994286D01*
X33206429Y50137144D01*
X33206429Y50422858D01*
X33135000Y50565715D01*
X33063571Y50637144D01*
X32920714Y50708572D01*
X32849286Y50708572D01*
X32706429Y50637144D01*
X32635000Y50565715D01*
X32563571Y50422858D01*
X32563571Y50137144D01*
X32492143Y49994286D01*
X32420714Y49922858D01*
X32277857Y49851429D01*
X31992143Y49851429D01*
X31849286Y49922858D01*
X31777857Y49994286D01*
X31706429Y50137144D01*
X31706429Y50422858D01*
X31777857Y50565715D01*
X31849286Y50637144D01*
X31992143Y50708572D01*
X32277857Y50708572D01*
X32420714Y50637144D01*
X32492143Y50565715D01*
X32563571Y50422858D01*
X29166429Y48422858D02*
X30666429Y48422858D01*
X30666429Y48780001D01*
X30595000Y48994286D01*
X30452143Y49137144D01*
X30309286Y49208572D01*
X30023571Y49280001D01*
X29809286Y49280001D01*
X29523571Y49208572D01*
X29380714Y49137144D01*
X29237857Y48994286D01*
X29166429Y48780001D01*
X29166429Y48422858D01*
X30666429Y49780001D02*
X30666429Y50780001D01*
X29166429Y50137144D01*
X26626429Y48422858D02*
X28126429Y48422858D01*
X28126429Y48780001D01*
X28055000Y48994286D01*
X27912143Y49137144D01*
X27769286Y49208572D01*
X27483571Y49280001D01*
X27269286Y49280001D01*
X26983571Y49208572D01*
X26840714Y49137144D01*
X26697857Y48994286D01*
X26626429Y48780001D01*
X26626429Y48422858D01*
X28126429Y50565715D02*
X28126429Y50280001D01*
X28055000Y50137144D01*
X27983571Y50065715D01*
X27769286Y49922858D01*
X27483571Y49851429D01*
X26912143Y49851429D01*
X26769286Y49922858D01*
X26697857Y49994286D01*
X26626429Y50137144D01*
X26626429Y50422858D01*
X26697857Y50565715D01*
X26769286Y50637144D01*
X26912143Y50708572D01*
X27269286Y50708572D01*
X27412143Y50637144D01*
X27483571Y50565715D01*
X27555000Y50422858D01*
X27555000Y50137144D01*
X27483571Y49994286D01*
X27412143Y49922858D01*
X27269286Y49851429D01*
X24086429Y48422858D02*
X25586429Y48422858D01*
X25586429Y48780001D01*
X25515000Y48994286D01*
X25372143Y49137144D01*
X25229286Y49208572D01*
X24943571Y49280001D01*
X24729286Y49280001D01*
X24443571Y49208572D01*
X24300714Y49137144D01*
X24157857Y48994286D01*
X24086429Y48780001D01*
X24086429Y48422858D01*
X25586429Y50637144D02*
X25586429Y49922858D01*
X24872143Y49851429D01*
X24943571Y49922858D01*
X25015000Y50065715D01*
X25015000Y50422858D01*
X24943571Y50565715D01*
X24872143Y50637144D01*
X24729286Y50708572D01*
X24372143Y50708572D01*
X24229286Y50637144D01*
X24157857Y50565715D01*
X24086429Y50422858D01*
X24086429Y50065715D01*
X24157857Y49922858D01*
X24229286Y49851429D01*
X22975000Y47752143D02*
X23046429Y47609286D01*
X23046429Y47395000D01*
X22975000Y47180715D01*
X22832143Y47037857D01*
X22689286Y46966429D01*
X22403571Y46895000D01*
X22189286Y46895000D01*
X21903571Y46966429D01*
X21760714Y47037857D01*
X21617857Y47180715D01*
X21546429Y47395000D01*
X21546429Y47537857D01*
X21617857Y47752143D01*
X21689286Y47823572D01*
X22189286Y47823572D01*
X22189286Y47537857D01*
X21546429Y48466429D02*
X23046429Y48466429D01*
X21546429Y49323572D01*
X23046429Y49323572D01*
X21546429Y50037858D02*
X23046429Y50037858D01*
X23046429Y50395001D01*
X22975000Y50609286D01*
X22832143Y50752144D01*
X22689286Y50823572D01*
X22403571Y50895001D01*
X22189286Y50895001D01*
X21903571Y50823572D01*
X21760714Y50752144D01*
X21617857Y50609286D01*
X21546429Y50395001D01*
X21546429Y50037858D01*
X20506429Y46680715D02*
X20506429Y47609286D01*
X19935000Y47109286D01*
X19935000Y47323572D01*
X19863571Y47466429D01*
X19792143Y47537858D01*
X19649286Y47609286D01*
X19292143Y47609286D01*
X19149286Y47537858D01*
X19077857Y47466429D01*
X19006429Y47323572D01*
X19006429Y46895000D01*
X19077857Y46752143D01*
X19149286Y46680715D01*
X19149286Y48252143D02*
X19077857Y48323571D01*
X19006429Y48252143D01*
X19077857Y48180714D01*
X19149286Y48252143D01*
X19006429Y48252143D01*
X20506429Y48823572D02*
X20506429Y49752143D01*
X19935000Y49252143D01*
X19935000Y49466429D01*
X19863571Y49609286D01*
X19792143Y49680715D01*
X19649286Y49752143D01*
X19292143Y49752143D01*
X19149286Y49680715D01*
X19077857Y49609286D01*
X19006429Y49466429D01*
X19006429Y49037857D01*
X19077857Y48895000D01*
X19149286Y48823572D01*
X20506429Y50180714D02*
X19006429Y50680714D01*
X20506429Y51180714D01*
X16466429Y48422858D02*
X17966429Y48422858D01*
X17966429Y48780001D01*
X17895000Y48994286D01*
X17752143Y49137144D01*
X17609286Y49208572D01*
X17323571Y49280001D01*
X17109286Y49280001D01*
X16823571Y49208572D01*
X16680714Y49137144D01*
X16537857Y48994286D01*
X16466429Y48780001D01*
X16466429Y48422858D01*
X17466429Y50565715D02*
X16466429Y50565715D01*
X18037857Y50208572D02*
X16966429Y49851429D01*
X16966429Y50780001D01*
X13926429Y48422858D02*
X15426429Y48422858D01*
X15426429Y48780001D01*
X15355000Y48994286D01*
X15212143Y49137144D01*
X15069286Y49208572D01*
X14783571Y49280001D01*
X14569286Y49280001D01*
X14283571Y49208572D01*
X14140714Y49137144D01*
X13997857Y48994286D01*
X13926429Y48780001D01*
X13926429Y48422858D01*
X15426429Y49780001D02*
X15426429Y50708572D01*
X14855000Y50208572D01*
X14855000Y50422858D01*
X14783571Y50565715D01*
X14712143Y50637144D01*
X14569286Y50708572D01*
X14212143Y50708572D01*
X14069286Y50637144D01*
X13997857Y50565715D01*
X13926429Y50422858D01*
X13926429Y49994286D01*
X13997857Y49851429D01*
X14069286Y49780001D01*
X11386429Y48422858D02*
X12886429Y48422858D01*
X12886429Y48780001D01*
X12815000Y48994286D01*
X12672143Y49137144D01*
X12529286Y49208572D01*
X12243571Y49280001D01*
X12029286Y49280001D01*
X11743571Y49208572D01*
X11600714Y49137144D01*
X11457857Y48994286D01*
X11386429Y48780001D01*
X11386429Y48422858D01*
X12743571Y49851429D02*
X12815000Y49922858D01*
X12886429Y50065715D01*
X12886429Y50422858D01*
X12815000Y50565715D01*
X12743571Y50637144D01*
X12600714Y50708572D01*
X12457857Y50708572D01*
X12243571Y50637144D01*
X11386429Y49780001D01*
X11386429Y50708572D01*
X8846429Y48422858D02*
X10346429Y48422858D01*
X10346429Y48780001D01*
X10275000Y48994286D01*
X10132143Y49137144D01*
X9989286Y49208572D01*
X9703571Y49280001D01*
X9489286Y49280001D01*
X9203571Y49208572D01*
X9060714Y49137144D01*
X8917857Y48994286D01*
X8846429Y48780001D01*
X8846429Y48422858D01*
X8846429Y50708572D02*
X8846429Y49851429D01*
X8846429Y50280001D02*
X10346429Y50280001D01*
X10132143Y50137144D01*
X9989286Y49994286D01*
X9917857Y49851429D01*
X6306429Y48422858D02*
X7806429Y48422858D01*
X7806429Y48780001D01*
X7735000Y48994286D01*
X7592143Y49137144D01*
X7449286Y49208572D01*
X7163571Y49280001D01*
X6949286Y49280001D01*
X6663571Y49208572D01*
X6520714Y49137144D01*
X6377857Y48994286D01*
X6306429Y48780001D01*
X6306429Y48422858D01*
X7806429Y50208572D02*
X7806429Y50351429D01*
X7735000Y50494286D01*
X7663571Y50565715D01*
X7520714Y50637144D01*
X7235000Y50708572D01*
X6877857Y50708572D01*
X6592143Y50637144D01*
X6449286Y50565715D01*
X6377857Y50494286D01*
X6306429Y50351429D01*
X6306429Y50208572D01*
X6377857Y50065715D01*
X6449286Y49994286D01*
X6592143Y49922858D01*
X6877857Y49851429D01*
X7235000Y49851429D01*
X7520714Y49922858D01*
X7663571Y49994286D01*
X7735000Y50065715D01*
X7806429Y50208572D01*
X31115000Y71120000D02*
X31115000Y90805000D01*
X31115000Y90805000D02*
X31115000Y99060000D01*
X31115000Y99060000D02*
X18415000Y99060000D01*
X18415000Y99060000D02*
X18415000Y71120000D01*
X18415000Y73660000D02*
G75*
G03X18415000Y73660000I-635000J0D01*
G01*
X31115000Y71120000D02*
X18415000Y71120000D01*
X18415000Y71120000D02*
X18415000Y73660000D01*
X18415000Y73660000D02*
X31115000Y73660000D01*
X31115000Y73660000D02*
X31115000Y71120000D01*
D12*
X33822398Y71607499D02*
X33822398Y73337239D01*
X33408257Y73337239D01*
X33304722Y73254870D01*
X33252954Y73172501D01*
X33201186Y73007764D01*
X33201186Y72760659D01*
X33252954Y72595921D01*
X33304722Y72513553D01*
X33408257Y72431184D01*
X33822398Y72431184D01*
X32838813Y73337239D02*
X32165834Y73337239D01*
X32528207Y72678290D01*
X32372905Y72678290D01*
X32269369Y72595921D01*
X32217602Y72513553D01*
X32165834Y72348816D01*
X32165834Y71936973D01*
X32217602Y71772236D01*
X32269369Y71689867D01*
X32372905Y71607499D01*
X32683510Y71607499D01*
X32787046Y71689867D01*
X32838813Y71772236D01*
D13*
X29506333Y78123143D02*
X29361190Y78050571D01*
X29119286Y78050571D01*
X29022524Y78123143D01*
X28974143Y78195714D01*
X28925762Y78340857D01*
X28925762Y78486000D01*
X28974143Y78631143D01*
X29022524Y78703714D01*
X29119286Y78776286D01*
X29312809Y78848857D01*
X29409571Y78921429D01*
X29457952Y78994000D01*
X29506333Y79139143D01*
X29506333Y79284286D01*
X29457952Y79429429D01*
X29409571Y79502000D01*
X29312809Y79574571D01*
X29070905Y79574571D01*
X28925762Y79502000D01*
X28490333Y78848857D02*
X28151667Y78848857D01*
X28006524Y78050571D02*
X28490333Y78050571D01*
X28490333Y79574571D01*
X28006524Y79574571D01*
X26990524Y78050571D02*
X27329190Y78776286D01*
X27571095Y78050571D02*
X27571095Y79574571D01*
X27184048Y79574571D01*
X27087286Y79502000D01*
X27038905Y79429429D01*
X26990524Y79284286D01*
X26990524Y79066571D01*
X27038905Y78921429D01*
X27087286Y78848857D01*
X27184048Y78776286D01*
X27571095Y78776286D01*
X26555095Y78050571D02*
X26555095Y79574571D01*
X26119666Y78486000D02*
X25635857Y78486000D01*
X26216428Y78050571D02*
X25877761Y79574571D01*
X25539095Y78050571D01*
X24716619Y78050571D02*
X25200428Y78050571D01*
X25200428Y79574571D01*
X24619857Y77905429D02*
X23845762Y77905429D01*
X23603857Y78050571D02*
X23603857Y79574571D01*
X23603857Y78848857D02*
X23023286Y78848857D01*
X23023286Y78050571D02*
X23023286Y79574571D01*
X21958905Y78195714D02*
X22007286Y78123143D01*
X22152429Y78050571D01*
X22249191Y78050571D01*
X22394333Y78123143D01*
X22491095Y78268286D01*
X22539476Y78413429D01*
X22587857Y78703714D01*
X22587857Y78921429D01*
X22539476Y79211714D01*
X22491095Y79356857D01*
X22394333Y79502000D01*
X22249191Y79574571D01*
X22152429Y79574571D01*
X22007286Y79502000D01*
X21958905Y79429429D01*
X20991286Y78050571D02*
X21571857Y78050571D01*
X21281571Y78050571D02*
X21281571Y79574571D01*
X21378333Y79356857D01*
X21475095Y79211714D01*
X21571857Y79139143D01*
X20604238Y79429429D02*
X20555857Y79502000D01*
X20459095Y79574571D01*
X20217191Y79574571D01*
X20120429Y79502000D01*
X20072048Y79429429D01*
X20023667Y79284286D01*
X20023667Y79139143D01*
X20072048Y78921429D01*
X20652619Y78050571D01*
X20023667Y78050571D01*
D14*
X29297381Y70405476D02*
X30297381Y70072143D01*
X29297381Y69738809D01*
X30249762Y68976904D02*
X30297381Y69072142D01*
X30297381Y69262619D01*
X30249762Y69357857D01*
X30202143Y69405476D01*
X30106905Y69453095D01*
X29821190Y69453095D01*
X29725952Y69405476D01*
X29678333Y69357857D01*
X29630714Y69262619D01*
X29630714Y69072142D01*
X29678333Y68976904D01*
X30249762Y68119761D02*
X30297381Y68214999D01*
X30297381Y68405476D01*
X30249762Y68500714D01*
X30202143Y68548333D01*
X30106905Y68595952D01*
X29821190Y68595952D01*
X29725952Y68548333D01*
X29678333Y68500714D01*
X29630714Y68405476D01*
X29630714Y68214999D01*
X29678333Y68119761D01*
X26805000Y69976904D02*
X26757381Y70072142D01*
X26757381Y70214999D01*
X26805000Y70357857D01*
X26900238Y70453095D01*
X26995476Y70500714D01*
X27185952Y70548333D01*
X27328810Y70548333D01*
X27519286Y70500714D01*
X27614524Y70453095D01*
X27709762Y70357857D01*
X27757381Y70214999D01*
X27757381Y70119761D01*
X27709762Y69976904D01*
X27662143Y69929285D01*
X27328810Y69929285D01*
X27328810Y70119761D01*
X27757381Y69500714D02*
X26757381Y69500714D01*
X27757381Y68929285D01*
X26757381Y68929285D01*
X27757381Y68453095D02*
X26757381Y68453095D01*
X26757381Y68215000D01*
X26805000Y68072142D01*
X26900238Y67976904D01*
X26995476Y67929285D01*
X27185952Y67881666D01*
X27328810Y67881666D01*
X27519286Y67929285D01*
X27614524Y67976904D01*
X27709762Y68072142D01*
X27757381Y68215000D01*
X27757381Y68453095D01*
X25217381Y69945238D02*
X24741190Y70278572D01*
X25217381Y70516667D02*
X24217381Y70516667D01*
X24217381Y70135714D01*
X24265000Y70040476D01*
X24312619Y69992857D01*
X24407857Y69945238D01*
X24550714Y69945238D01*
X24645952Y69992857D01*
X24693571Y70040476D01*
X24741190Y70135714D01*
X24741190Y70516667D01*
X25217381Y69611905D02*
X24550714Y69088095D01*
X24550714Y69611905D02*
X25217381Y69088095D01*
X21677381Y70540476D02*
X21677381Y69969047D01*
X22677381Y70254762D02*
X21677381Y70254762D01*
X22677381Y69730952D02*
X22010714Y69207142D01*
X22010714Y69730952D02*
X22677381Y69207142D01*
X20089762Y70334048D02*
X20137381Y70191191D01*
X20137381Y69953095D01*
X20089762Y69857857D01*
X20042143Y69810238D01*
X19946905Y69762619D01*
X19851667Y69762619D01*
X19756429Y69810238D01*
X19708810Y69857857D01*
X19661190Y69953095D01*
X19613571Y70143572D01*
X19565952Y70238810D01*
X19518333Y70286429D01*
X19423095Y70334048D01*
X19327857Y70334048D01*
X19232619Y70286429D01*
X19185000Y70238810D01*
X19137381Y70143572D01*
X19137381Y69905476D01*
X19185000Y69762619D01*
X19613571Y69334048D02*
X19613571Y69000714D01*
X20137381Y68857857D02*
X20137381Y69334048D01*
X19137381Y69334048D01*
X19137381Y68857857D01*
X19137381Y68572143D02*
X19137381Y68000714D01*
X20137381Y68286429D02*
X19137381Y68286429D01*
D15*
X-3850952Y3125238D02*
X-6390952Y3125238D01*
X-6390952Y4092857D01*
X-6270000Y4334762D01*
X-6149048Y4455714D01*
X-5907143Y4576666D01*
X-5544286Y4576666D01*
X-5302381Y4455714D01*
X-5181429Y4334762D01*
X-5060476Y4092857D01*
X-5060476Y3125238D01*
X-6390952Y5423333D02*
X-6390952Y7116666D01*
X-3850952Y6028095D01*
X-8205238Y13850952D02*
X-8205238Y16390952D01*
X-7237619Y16390952D01*
X-6995714Y16270000D01*
X-6874762Y16149048D01*
X-6753810Y15907143D01*
X-6753810Y15544286D01*
X-6874762Y15302381D01*
X-6995714Y15181429D01*
X-7237619Y15060476D01*
X-8205238Y15060476D01*
X-4213810Y14092857D02*
X-4334762Y13971905D01*
X-4697619Y13850952D01*
X-4939524Y13850952D01*
X-5302381Y13971905D01*
X-5544286Y14213810D01*
X-5665238Y14455714D01*
X-5786190Y14939524D01*
X-5786190Y15302381D01*
X-5665238Y15786190D01*
X-5544286Y16028095D01*
X-5302381Y16270000D01*
X-4939524Y16390952D01*
X-4697619Y16390952D01*
X-4334762Y16270000D01*
X-4213810Y16149048D01*
X-2278571Y15181429D02*
X-1915714Y15060476D01*
X-1794762Y14939524D01*
X-1673810Y14697619D01*
X-1673810Y14334762D01*
X-1794762Y14092857D01*
X-1915714Y13971905D01*
X-2157619Y13850952D01*
X-3125238Y13850952D01*
X-3125238Y16390952D01*
X-2278571Y16390952D01*
X-2036667Y16270000D01*
X-1915714Y16149048D01*
X-1794762Y15907143D01*
X-1794762Y15665238D01*
X-1915714Y15423333D01*
X-2036667Y15302381D01*
X-2278571Y15181429D01*
X-3125238Y15181429D01*
M02*
